<svg xmlns="http://www.w3.org/2000/svg" width="331.686" height="489.055" viewBox="0 0 331.686 489.055"><g transform="translate(0.564 1.39)"><line y1="256" x2="1" transform="translate(185.622 197.655)" fill="none" stroke="#fff" stroke-width="3" opacity="0.07"/><circle cx="8" cy="8" r="8" transform="translate(178.122 182.155)" fill="#fff" opacity="0.07"/><circle cx="8" cy="8" r="8" transform="translate(246.122 278.155)" fill="#fff" opacity="0.07"/><circle cx="8" cy="8" r="8" transform="translate(82.122 135.155)" fill="#fff" opacity="0.07"/><circle cx="8" cy="8" r="8" transform="translate(191.122 71.155)" fill="#fff" opacity="0.07"/><circle cx="8" cy="8" r="8" transform="translate(315.122 128.155)" fill="#fff" opacity="0.07"/><circle cx="8" cy="8" r="8" transform="translate(82.122 346.155)" fill="#fff" opacity="0.07"/><path d="M2617.119,727.58V546.763l-69.545-43.952" transform="translate(-2362.571 -257.845)" fill="none" stroke="#fff" stroke-width="3" opacity="0.07"/><path d="M2800.856,642.179l-96.388-26.705V403.5l-87.348,97.363" transform="translate(-2615.853 -257.845)" fill="none" stroke="#fff" stroke-width="3" opacity="0.07"/><path d="M2692.622,531.24l109.5-192.389L2602.5,257.845" transform="translate(-2602.5 -257.845)" fill="none" stroke="#fff" stroke-width="3" opacity="0.07"/><path d="M2479,531.24V394h92V745.51" transform="translate(-2247.878 -257.845)" fill="none" stroke="#fff" stroke-width="3" opacity="0.07"/></g></svg>