<svg xmlns="http://www.w3.org/2000/svg" width="30.988" height="30.988" viewBox="0 0 30.988 30.988"><g transform="translate(-81.47 -11.473)"><path d="M96.964,11.473a15.5,15.5,0,1,1-10.956,4.539,15.446,15.446,0,0,1,10.956-4.539ZM96.4,23.525a.727.727,0,0,1,1.118,0l4.844,4.98a.724.724,0,1,1-1.038,1.009L97.69,25.773v9.432a.726.726,0,0,1-1.452,0V25.773L92.6,29.511A.724.724,0,0,1,91.563,28.5L96.4,23.525ZM92.37,21.559a.726.726,0,0,1,0-1.452h9.19a.726.726,0,0,1,0,1.452Zm14.523-4.522A14.042,14.042,0,1,0,111,26.966,14,14,0,0,0,106.892,17.037Z" fill="#a6a6a6"/></g></svg>